<svg xmlns="http://www.w3.org/2000/svg" viewBox="0 0 900 600" width="900" height="600">
  <pattern id="stripe-h" x="0" y="0" width="60" height="30" patternUnits="userSpaceOnUse">
    <rect x="0" y="0" width="20" height="30" fill="#C0392B"/>
    <rect x="20" y="0" width="20" height="30" fill="#FFFFFF"/>
    <rect x="40" y="0" width="20" height="30" fill="#1A3A6B"/>
  </pattern>
  <pattern id="stripe-v" x="0" y="0" width="30" height="60" patternUnits="userSpaceOnUse">
    <rect x="0" y="0" width="30" height="20" fill="#C0392B"/>
    <rect x="0" y="20" width="30" height="20" fill="#FFFFFF"/>
    <rect x="0" y="40" width="30" height="20" fill="#1A3A6B"/>
  </pattern>
  <rect x="0" y="0" width="900" height="30" fill="url(#stripe-h)"/>
  <rect x="0" y="570" width="900" height="30" fill="url(#stripe-h)"/>
  <rect x="0" y="30" width="30" height="540" fill="url(#stripe-v)"/>
  <rect x="870" y="30" width="30" height="540" fill="url(#stripe-v)"/>
  <!-- Photo slots 3x2 -->
  <!-- Row 1 -->
  <rect x="45" y="45" width="260" height="240" fill="none" stroke="#D4B896" stroke-width="2" stroke-dasharray="8,4"/>
  <rect x="320" y="45" width="260" height="240" fill="none" stroke="#D4B896" stroke-width="2" stroke-dasharray="8,4"/>
  <rect x="595" y="45" width="260" height="240" fill="none" stroke="#D4B896" stroke-width="2" stroke-dasharray="8,4"/>
  <!-- Row 2 -->
  <rect x="45" y="315" width="260" height="240" fill="none" stroke="#D4B896" stroke-width="2" stroke-dasharray="8,4"/>
  <rect x="320" y="315" width="260" height="240" fill="none" stroke="#D4B896" stroke-width="2" stroke-dasharray="8,4"/>
  <rect x="595" y="315" width="260" height="240" fill="none" stroke="#D4B896" stroke-width="2" stroke-dasharray="8,4"/>
  <text x="450" y="586" text-anchor="middle" font-family="serif" font-size="12" fill="#8B4513" letter-spacing="4">RAFIKOSAN · lemillion project · PAR AVION</text>
</svg>
